<svg width="1em" height="1em" fill="currentcolor" viewBox="0 0 24 24" data-testid="Icon24AlLayoutGridNoneSmall"><path fill="currentcolor" d="M11.653 13.008A1.5 1.5 0 0 1 13 14.5v2l-.008.153a1.5 1.5 0 0 1-1.339 1.34L11.5 18h-2l-.153-.008a1.5 1.5 0 0 1-1.34-1.339L8 16.5v-2a1.5 1.5 0 0 1 1.347-1.492L9.5 13h2zM9.5 14a.5.5 0 0 0-.5.5v2a.5.5 0 0 0 .5.5h2a.5.5 0 0 0 .5-.5v-2a.5.5 0 0 0-.5-.5zm7.153-5.992A1.5 1.5 0 0 1 18 9.5v2l-.008.153a1.5 1.5 0 0 1-1.339 1.34L16.5 13h-2l-.153-.008a1.5 1.5 0 0 1-1.34-1.339L13 11.5v-2a1.5 1.5 0 0 1 1.347-1.492L14.5 8h2zM14.5 9a.5.5 0 0 0-.5.5v2a.5.5 0 0 0 .5.5h2a.5.5 0 0 0 .5-.5v-2a.5.5 0 0 0-.5-.5zM9.653 6.008A1.5 1.5 0 0 1 11 7.5v2l-.008.153a1.5 1.5 0 0 1-1.339 1.34L9.5 11h-2l-.153-.008a1.5 1.5 0 0 1-1.34-1.339L6 9.5v-2a1.5 1.5 0 0 1 1.347-1.492L7.5 6h2zM7.5 7a.5.5 0 0 0-.5.5v2a.5.5 0 0 0 .5.5h2a.5.5 0 0 0 .5-.5v-2a.5.5 0 0 0-.5-.5z"></path></svg>
