<svg width="1em" height="1em" viewBox="0 0 32 32" fill="none" xmlns="http://www.w3.org/2000/svg">
<path d="M21.3334 12.6667C21.3334 11.424 21.3334 10.8027 21.536 10.3134C21.67 9.98959 21.8665 9.69542 22.1143 9.44765C22.3621 9.19988 22.6563 9.00337 22.98 8.86935C23.4694 8.66669 24.0907 8.66669 25.3334 8.66669C26.576 8.66669 27.1974 8.66669 27.6867 8.86935C28.0104 9.00337 28.3046 9.19988 28.5524 9.44765C28.8002 9.69542 28.9967 9.98959 29.1307 10.3134C29.3334 10.8027 29.3334 11.424 29.3334 12.6667V18C29.3334 19.2427 29.3334 19.864 29.1307 20.3534C28.9967 20.6771 28.8002 20.9713 28.5524 21.2191C28.3046 21.4668 28.0104 21.6633 27.6867 21.7974C27.1974 22 26.576 22 25.3334 22C24.0907 22 23.4694 22 22.98 21.7974C22.6563 21.6633 22.3621 21.4668 22.1143 21.2191C21.8665 20.9713 21.67 20.6771 21.536 20.3534C21.3334 19.864 21.3334 19.2427 21.3334 18V12.6667ZM2.66669 21.3334C2.66669 18.8187 2.66669 17.5627 3.44802 16.7814C4.22935 16 5.48535 16 8.00002 16H10.6667C13.1814 16 14.4374 16 15.2187 16.7814C16 17.5627 16 18.8187 16 21.3334V24C16 26.5147 16 27.7707 15.2187 28.552C14.4374 29.3334 13.1814 29.3334 10.6667 29.3334H8.00002C5.48535 29.3334 4.22935 29.3334 3.44802 28.552C2.66669 27.7707 2.66669 26.5147 2.66669 24V21.3334ZM2.66669 6.66669C2.66669 5.42402 2.66669 4.80269 2.86935 4.31335C3.00337 3.98959 3.19988 3.69542 3.44765 3.44765C3.69542 3.19988 3.98959 3.00337 4.31335 2.86935C4.80269 2.66669 5.42402 2.66669 6.66669 2.66669H12C13.2427 2.66669 13.864 2.66669 14.3534 2.86935C14.6771 3.00337 14.9713 3.19988 15.2191 3.44765C15.4668 3.69542 15.6633 3.98959 15.7974 4.31335C16 4.80269 16 5.42402 16 6.66669C16 7.90935 16 8.53069 15.7974 9.02002C15.6633 9.34378 15.4668 9.63795 15.2191 9.88572C14.9713 10.1335 14.6771 10.33 14.3534 10.464C13.864 10.6667 13.2427 10.6667 12 10.6667H6.66669C5.42402 10.6667 4.80269 10.6667 4.31335 10.464C3.98959 10.33 3.69542 10.1335 3.44765 9.88572C3.19988 9.63795 3.00337 9.34378 2.86935 9.02002C2.66669 8.53069 2.66669 7.90935 2.66669 6.66669Z" stroke="currentcolor" stroke-width="2" stroke-linecap="round" stroke-linejoin="round"/>
</svg>
