<svg width="1em" height="1em" viewBox="0 0 32 32" fill="none" xmlns="http://www.w3.org/2000/svg">
<path d="M21.3334 7.33335C21.3334 6.09069 21.3334 5.46936 21.536 4.98002C21.67 4.65626 21.8665 4.36209 22.1143 4.11432C22.3621 3.86655 22.6563 3.67004 22.98 3.53602C23.4694 3.33336 24.0907 3.33335 25.3334 3.33335C26.576 3.33335 27.1974 3.33336 27.6867 3.53602C28.0104 3.67004 28.3046 3.86655 28.5524 4.11432C28.8002 4.36209 28.9967 4.65626 29.1307 4.98002C29.3334 5.46936 29.3334 6.09069 29.3334 7.33335C29.3334 8.57602 29.3334 9.19735 29.1307 9.68669C28.9967 10.0104 28.8002 10.3046 28.5524 10.5524C28.3046 10.8002 28.0104 10.9967 27.6867 11.1307C27.1974 11.3334 26.576 11.3334 25.3334 11.3334C24.0907 11.3334 23.4694 11.3334 22.98 11.1307C22.6563 10.9967 22.3621 10.8002 22.1143 10.5524C21.8665 10.3046 21.67 10.0104 21.536 9.68669C21.3334 9.19735 21.3334 8.57602 21.3334 7.33335ZM2.66669 6.66669C2.66669 5.42402 2.66669 4.80269 2.86935 4.31335C3.00337 3.98959 3.19988 3.69542 3.44765 3.44765C3.69542 3.19988 3.98959 3.00337 4.31335 2.86935C4.80269 2.66669 5.42402 2.66669 6.66669 2.66669H12C13.2427 2.66669 13.864 2.66669 14.3534 2.86935C14.6771 3.00337 14.9713 3.19988 15.2191 3.44765C15.4668 3.69542 15.6633 3.98959 15.7974 4.31335C16 4.80269 16 5.42402 16 6.66669C16 7.90935 16 8.53069 15.7974 9.02002C15.6633 9.34378 15.4668 9.63795 15.2191 9.88572C14.9713 10.1335 14.6771 10.33 14.3534 10.464C13.864 10.6667 13.2427 10.6667 12 10.6667H6.66669C5.42402 10.6667 4.80269 10.6667 4.31335 10.464C3.98959 10.33 3.69542 10.1335 3.44765 9.88572C3.19988 9.63795 3.00337 9.34378 2.86935 9.02002C2.66669 8.53069 2.66669 7.90935 2.66669 6.66669Z" stroke="currentcolor" stroke-width="2" stroke-linecap="round" stroke-linejoin="round"/>
<path d="M26 23.1667H5M26 23.1667C26 24.924 19.2734 28 19.2734 28M26 23.1667C26 21.4093 19.2734 18 19.2734 18" stroke="currentcolor" stroke-width="2" stroke-linecap="round" stroke-linejoin="round"/>
</svg>
