<svg width="1em" height="1em" viewBox="0 0 32 32" fill="none" xmlns="http://www.w3.org/2000/svg">
<path d="M8.00002 21.6667C9.24269 21.6667 8.86402 21.6667 9.35335 21.8693C9.67711 22.0034 9.97128 22.1999 10.2191 22.4476C10.4668 22.6954 10.6633 22.9896 10.7974 23.3133C11 23.8027 11 24.424 11 25.6667C11 26.9093 11 27.5307 10.7974 28.02C10.6633 28.3438 10.4668 28.6379 10.2191 28.8857C9.97128 29.1335 9.67711 29.33 9.35335 29.464C8.86402 29.6667 9.24269 29.6667 8.00002 29.6667C6.75735 29.6667 6.13602 29.6667 5.64669 29.464C5.32293 29.33 5.02876 29.1335 4.78098 28.8857C4.53321 28.6379 4.3367 28.3438 4.20269 28.02C4.00002 27.5307 4.00002 26.9093 4.00002 25.6667C4.00002 24.424 4.00002 23.8027 4.20269 23.3133C4.3367 22.9896 4.53321 22.6954 4.78098 22.4476C5.02876 22.1999 5.32293 22.0034 5.64669 21.8693C6.13602 21.6667 6.75735 21.6667 8.00002 21.6667ZM7.66669 3C8.90935 3 9.53069 3 10.02 3.20267C10.3438 3.33668 10.638 3.53319 10.8857 3.78096C11.1335 4.02874 11.33 4.32291 11.464 4.64667C11.6667 5.136 11.6667 5.75733 11.6667 7V12.3333C11.6667 13.576 11.6667 14.1973 11.464 14.6867C11.33 15.0104 11.1335 15.3046 10.8857 15.5524C10.638 15.8001 10.3438 15.9966 10.02 16.1307C9.53069 16.3333 8.90935 16.3333 7.66669 16.3333C6.42402 16.3333 5.80269 16.3333 5.31335 16.1307C4.98959 15.9966 4.69542 15.8001 4.44765 15.5524C4.19988 15.3046 4.00337 15.0104 3.86935 14.6867C3.66669 14.1973 3.66669 13.576 3.66669 12.3333V7C3.66669 5.75733 3.66669 5.136 3.86935 4.64667C4.00337 4.32291 4.19988 4.02874 4.44765 3.78096C4.69542 3.53319 4.98959 3.33668 5.31335 3.20267C5.80269 3 6.42402 3 7.66669 3Z" stroke="currentcolor" stroke-width="2" stroke-linecap="round" stroke-linejoin="round"/>
<path d="M23.8333 26V5M23.8333 26C22.076 26 19 19.2734 19 19.2734M23.8333 26C25.5907 26 29 19.2734 29 19.2734" stroke="currentcolor" stroke-width="2" stroke-linecap="round" stroke-linejoin="round"/>
</svg>
